<svg width="944" height="569" viewBox="0 0 944 569" fill="none" xmlns="http://www.w3.org/2000/svg">
<path d="M651.833 168.034H644.657V533.844H651.833V168.034Z" fill="#74CDDD"/>
<path d="M267.395 31.3452H260.22V167.835H267.395V31.3452Z" fill="#74CDDD"/>
<path d="M24 510.7V57.8567C24 41.9469 36.9469 29 52.8567 29H895.143C911.053 29 924 41.9469 924 57.8567V510.7C924 526.61 911.053 539.557 895.143 539.557H52.8567C36.9469 539.557 24 526.61 24 510.7ZM52.8567 36.504C41.0821 36.504 31.504 46.0821 31.504 57.8567V510.7C31.504 522.475 41.0821 532.053 52.8567 532.053H895.143C906.918 532.053 916.496 522.475 916.496 510.7V57.8567C916.496 46.0821 906.918 36.504 895.143 36.504H52.8567Z" fill="#74CDDD"/>
<path d="M916.65 163.976H31.04V171.48H916.65V163.976Z" fill="#74CDDD"/>
<path d="M97.643 43.809C97.3789 43.809 97.1663 43.5964 97.1663 43.3259V33.999H91.5238V43.3259C91.5238 43.59 91.3112 43.809 91.0407 43.809C90.7766 43.809 90.5576 44.0216 90.5576 44.2921V48.7301H98.1196V44.2921C98.1196 44.028 97.9071 43.809 97.6365 43.809H97.643Z" fill="#74CDDD"/>
<path d="M94.9055 47.7764H93.7783V59.976H94.9055V47.7764Z" fill="#74CDDD"/>
<path d="M197.732 43.808C197.468 43.808 197.255 43.5955 197.255 43.3249V33.998H191.613V43.3249C191.613 43.589 191.4 43.808 191.13 43.808C190.865 43.808 190.646 44.0206 190.646 44.2911V48.7291H198.208V44.2911C198.208 44.027 197.996 43.808 197.725 43.808H197.732Z" fill="#74CDDD"/>
<path d="M195 47.7759H193.873V59.9756H195V47.7759Z" fill="#74CDDD"/>
<path d="M40.4906 85.7793C40.4906 86.0434 40.2781 86.2624 40.0076 86.2624H30.6807V91.9049H40.0076C40.2716 91.9049 40.4906 92.1175 40.4906 92.388C40.4906 92.6521 40.7032 92.8711 40.9737 92.8711H45.4117V85.3091H40.9737C40.7096 85.3091 40.4906 85.5216 40.4906 85.7922V85.7793Z" fill="#74CDDD"/>
<path d="M72.5431 88.5171H44.4658V89.6443H72.5431V88.5171Z" fill="#74CDDD"/>
<path d="M787.396 179.989C787.131 179.989 786.912 179.777 786.912 179.506V170.179H781.27V179.506C781.27 179.77 781.057 179.989 780.787 179.989C780.523 179.989 780.304 180.202 780.304 180.472V184.91H787.866V180.472C787.866 180.208 787.653 179.989 787.383 179.989H787.396Z" fill="#74CDDD"/>
<path d="M784.664 183.963H783.537V226.997H784.664V183.963Z" fill="#74CDDD"/>
<path d="M540.302 181.541C540.038 181.541 539.819 181.329 539.819 181.058V171.731H534.176V181.058C534.176 181.322 533.964 181.541 533.693 181.541C533.429 181.541 533.21 181.754 533.21 182.025V186.463H540.772V182.025C540.772 181.76 540.559 181.541 540.289 181.541H540.302Z" fill="#74CDDD"/>
<path d="M537.565 185.509H536.438V207.609H537.565V185.509Z" fill="#74CDDD"/>
<path d="M412.173 522.224C412.437 522.224 412.656 522.436 412.656 522.707V532.034H418.299V522.707C418.299 522.443 418.512 522.224 418.782 522.224C419.046 522.224 419.265 522.011 419.265 521.741V517.303H411.703V521.741C411.703 522.005 411.916 522.224 412.186 522.224H412.173Z" fill="#74CDDD"/>
<path d="M416.038 496.156H414.911V518.256H416.038V496.156Z" fill="#74CDDD"/>
<path d="M478.388 522.224C478.652 522.224 478.871 522.436 478.871 522.707V532.034H484.514V522.707C484.514 522.443 484.726 522.224 484.997 522.224C485.261 522.224 485.48 522.011 485.48 521.741V517.303H477.918V521.741C477.918 522.005 478.131 522.224 478.401 522.224H478.388Z" fill="#74CDDD"/>
<path d="M482.253 496.156H481.126V518.256H482.253V496.156Z" fill="#74CDDD"/>
<path d="M581.602 522.225C581.866 522.225 582.085 522.437 582.085 522.708V532.035H587.728V522.708C587.728 522.444 587.94 522.225 588.211 522.225C588.475 522.225 588.694 522.012 588.694 521.742V517.304H581.132V521.742C581.132 522.006 581.344 522.225 581.615 522.225H581.602Z" fill="#74CDDD"/>
<path d="M585.467 496.157H584.34V518.257H585.467V496.157Z" fill="#74CDDD"/>
<path d="M190.299 522.223C190.563 522.223 190.782 522.436 190.782 522.706V532.033H196.425V522.706C196.425 522.442 196.637 522.223 196.908 522.223C197.172 522.223 197.391 522.011 197.391 521.74V517.302H189.829V521.74C189.829 522.004 190.042 522.223 190.312 522.223H190.299Z" fill="#74CDDD"/>
<path d="M194.164 360.053H193.037V518.256H194.164V360.053Z" fill="#74CDDD"/>
<path d="M304.651 522.224C304.915 522.224 305.134 522.437 305.134 522.707V532.034H310.776V522.707C310.776 522.443 310.989 522.224 311.26 522.224C311.524 522.224 311.743 522.012 311.743 521.741V517.303H304.181V521.741C304.181 522.005 304.393 522.224 304.664 522.224H304.651Z" fill="#74CDDD"/>
<path d="M308.516 496.157H307.389V518.257H308.516V496.157Z" fill="#74CDDD"/>
<path d="M95.4653 522.224C95.7294 522.224 95.9484 522.436 95.9484 522.707V532.034H101.591V522.707C101.591 522.443 101.803 522.224 102.074 522.224C102.338 522.224 102.557 522.011 102.557 521.741V517.303H94.9951V521.741C94.9951 522.005 95.2077 522.224 95.4782 522.224H95.4653Z" fill="#74CDDD"/>
<path d="M99.3303 496.156H98.2031V518.256H99.3303V496.156Z" fill="#74CDDD"/>
<path d="M309.758 179.203C309.494 179.203 309.275 178.99 309.275 178.72V169.393H303.632V178.72C303.632 178.984 303.42 179.203 303.149 179.203C302.885 179.203 302.666 179.416 302.666 179.686V184.124H310.228V179.686C310.228 179.422 310.015 179.203 309.745 179.203H309.758Z" fill="#74CDDD"/>
<path d="M307.027 183.17H305.899V295.009H307.027V183.17Z" fill="#74CDDD"/>
<path d="M635.44 276.994C635.44 276.73 635.652 276.511 635.923 276.511H645.25V270.868H635.923C635.659 270.868 635.44 270.655 635.44 270.385C635.44 270.121 635.227 269.902 634.957 269.902H630.519V277.464H634.957C635.221 277.464 635.44 277.251 635.44 276.981V276.994Z" fill="#74CDDD"/>
<path d="M631.465 273.128H588.432V274.256H631.465V273.128Z" fill="#74CDDD"/>
<path d="M632.251 387.441C632.251 387.177 632.464 386.958 632.734 386.958H642.061V381.316H632.734C632.47 381.316 632.251 381.103 632.251 380.833C632.251 380.569 632.039 380.35 631.768 380.35H627.33V387.912H631.768C632.032 387.912 632.251 387.699 632.251 387.429V387.441Z" fill="#74CDDD"/>
<path d="M628.277 383.576H585.243V384.703H628.277V383.576Z" fill="#74CDDD"/>
<path d="M635.438 470.141C635.438 469.877 635.65 469.658 635.921 469.658H645.248V464.015H635.921C635.657 464.015 635.438 463.802 635.438 463.532C635.438 463.268 635.225 463.049 634.955 463.049H630.517V470.611H634.955C635.219 470.611 635.438 470.398 635.438 470.128V470.141Z" fill="#74CDDD"/>
<path d="M631.464 466.282H603.387V467.409H631.464V466.282Z" fill="#74CDDD"/>
<path d="M178.049 179.204C177.785 179.204 177.566 178.991 177.566 178.72V169.394H171.923V178.72C171.923 178.985 171.711 179.204 171.44 179.204C171.176 179.204 170.957 179.416 170.957 179.687V184.125H178.519V179.687C178.519 179.423 178.306 179.204 178.036 179.204H178.049Z" fill="#74CDDD"/>
<path d="M175.318 183.171H174.19V262.102H175.318V183.171Z" fill="#74CDDD"/>
<path d="M40.4906 356.626C40.4906 356.891 40.2781 357.11 40.0076 357.11H30.6807V362.752H40.0076C40.2716 362.752 40.4906 362.965 40.4906 363.235C40.4906 363.499 40.7032 363.718 40.9737 363.718H45.4117V356.156H40.9737C40.7096 356.156 40.4906 356.369 40.4906 356.639V356.626Z" fill="#74CDDD"/>
<path d="M78.527 359.364H44.4658V360.491H78.527V359.364Z" fill="#74CDDD"/>
<path d="M241.115 359.364H161.083V360.491H241.115V359.364Z" fill="#74CDDD"/>
<path d="M308.515 387.654H307.388V441.399H308.515V387.654Z" fill="#74CDDD"/>
<path d="M399.672 365.689H351.736V366.817H399.672V365.689Z" fill="#74CDDD"/>
<path d="M518.782 365.689H475.703V366.817H518.782V365.689Z" fill="#74CDDD"/>
<path d="M307.021 256.472H270.184V257.599H307.021V256.472Z" fill="#74CDDD"/>
<path d="M159.111 272.06H131.717V273.187H159.111V272.06Z" fill="#74CDDD"/>
<path d="M40.4906 251.57C40.4906 251.834 40.2781 252.053 40.0076 252.053H30.6807V257.696H40.0076C40.2716 257.696 40.4906 257.908 40.4906 258.179C40.4906 258.443 40.7032 258.662 40.9737 258.662H45.4117V251.1H40.9737C40.7096 251.1 40.4906 251.313 40.4906 251.583V251.57Z" fill="#74CDDD"/>
<path d="M87.4996 254.308H44.4658V255.435H87.4996V254.308Z" fill="#74CDDD"/>
<path d="M40.4906 473.058C40.4906 473.322 40.2781 473.541 40.0076 473.541H30.6807V479.184H40.0076C40.2716 479.184 40.4906 479.396 40.4906 479.667C40.4906 479.931 40.7032 480.15 40.9737 480.15H45.4117V472.588H40.9737C40.7096 472.588 40.4906 472.8 40.4906 473.071V473.058Z" fill="#74CDDD"/>
<path d="M78.527 475.795H44.4658V476.923H78.527V475.795Z" fill="#74CDDD"/>
<path d="M120.052 179.203C119.788 179.203 119.569 178.99 119.569 178.719V169.393H113.926V178.719C113.926 178.984 113.714 179.203 113.443 179.203C113.179 179.203 112.96 179.415 112.96 179.686V184.124H120.522V179.686C120.522 179.422 120.309 179.203 120.039 179.203H120.052Z" fill="#74CDDD"/>
<path d="M117.315 183.17H116.188V226.204H117.315V183.17Z" fill="#74CDDD"/>
<path d="M243.163 179.203C242.899 179.203 242.68 178.99 242.68 178.72V169.393H237.037V178.72C237.037 178.984 236.825 179.203 236.554 179.203C236.29 179.203 236.071 179.416 236.071 179.686V184.124H243.633V179.686C243.633 179.422 243.421 179.203 243.15 179.203H243.163Z" fill="#74CDDD"/>
<path d="M240.432 183.171H239.305V226.205H240.432V183.171Z" fill="#74CDDD"/>
<path d="M406.615 179.203C406.351 179.203 406.132 178.99 406.132 178.72V169.393H400.49V178.72C400.49 178.984 400.277 179.203 400.007 179.203C399.742 179.203 399.523 179.416 399.523 179.686V184.124H407.085V179.686C407.085 179.422 406.873 179.203 406.602 179.203H406.615Z" fill="#74CDDD"/>
<path d="M403.884 183.171H402.757V226.205H403.884V183.171Z" fill="#74CDDD"/>
<path d="M780.8 522.224C781.064 522.224 781.283 522.437 781.283 522.707V532.034H786.926V522.707C786.926 522.443 787.138 522.224 787.409 522.224C787.673 522.224 787.892 522.012 787.892 521.741V517.303H780.33V521.741C780.33 522.005 780.543 522.224 780.813 522.224H780.8Z" fill="#74CDDD"/>
<path d="M784.665 475.216H783.538V518.25H784.665V475.216Z" fill="#74CDDD"/>
<path d="M908.483 306.501C908.483 306.237 908.695 306.018 908.966 306.018H918.293V300.375H908.966C908.702 300.375 908.483 300.163 908.483 299.892C908.483 299.628 908.27 299.409 908 299.409H903.562V306.971H908C908.264 306.971 908.483 306.759 908.483 306.488V306.501Z" fill="#74CDDD"/>
<path d="M904.508 302.643H861.475V303.77H904.508V302.643Z" fill="#74CDDD"/>
<path d="M661.579 299.905C661.579 300.169 661.366 300.388 661.095 300.388H651.769V306.031H661.095C661.36 306.031 661.579 306.243 661.579 306.514C661.579 306.778 661.791 306.997 662.062 306.997H666.5V299.435H662.062C661.798 299.435 661.579 299.648 661.579 299.918V299.905Z" fill="#74CDDD"/>
<path d="M708.587 302.643H665.554V303.77H708.587V302.643Z" fill="#74CDDD"/>
<path d="M661.579 410.423C661.579 410.687 661.366 410.906 661.095 410.906H651.769V416.549H661.095C661.36 416.549 661.579 416.761 661.579 417.032C661.579 417.296 661.791 417.515 662.062 417.515H666.5V409.953H662.062C661.798 409.953 661.579 410.166 661.579 410.436V410.423Z" fill="#74CDDD"/>
<path d="M708.587 413.161H665.554V414.288H708.587V413.161Z" fill="#74CDDD"/>
<path d="M908.483 417.026C908.483 416.762 908.695 416.543 908.966 416.543H918.293V410.9H908.966C908.702 410.9 908.483 410.688 908.483 410.417C908.483 410.153 908.27 409.934 908 409.934H903.562V417.496H908C908.264 417.496 908.483 417.284 908.483 417.013V417.026Z" fill="#74CDDD"/>
<path d="M904.508 413.161H861.475V414.288H904.508V413.161Z" fill="#74CDDD"/>
<path d="M68.818 98.6299C68.818 75.8215 86.2028 58.7651 109.675 58.7651C120.973 58.7651 130.937 62.8618 138.686 70.72L127.942 82.6814C123.182 77.3674 116.535 74.3787 109.784 74.3787C95.942 74.3787 86.1964 84.4527 86.1964 98.6299C86.1964 112.807 95.388 123.21 108.786 123.21C118.087 123.21 125.398 117.786 125.398 111.029C125.398 108.26 123.291 106.598 119.749 106.598H107.124V92.7555H141.675V137.38H124.953V127.97C120.522 135.164 114.1 138.488 104.58 138.488C83.7616 138.488 68.8115 121.767 68.8115 98.6234L68.818 98.6299Z" fill="#74CDDD"/>
<path d="M154.544 98.6299C154.544 75.931 171.594 58.7651 194.299 58.7651C217.005 58.7651 234.054 75.931 234.054 98.6299C234.054 121.329 217.005 138.495 194.299 138.495C171.594 138.495 154.544 121.329 154.544 98.6299ZM216.663 98.6299C216.663 84.7877 207.143 74.3787 194.293 74.3787C181.443 74.3787 171.922 84.7877 171.922 98.6299C171.922 112.472 181.443 122.881 194.293 122.881C207.143 122.881 216.663 112.472 216.663 98.6299Z" fill="#74CDDD"/>
<path d="M729.758 239.139C706.029 222.546 684.58 259.879 712.167 269.548L729.758 239.139Z" fill="#60BDC6"/>
<path d="M714.622 259.094C710.474 257.02 707.775 254.16 710.184 249.593C712.593 245.032 716.574 245.818 720.554 247.892L714.622 259.094Z" fill="#010101"/>
<path d="M843.174 239.138C866.903 222.546 888.353 259.879 860.765 269.547L843.174 239.138Z" fill="#60BDC6"/>
<path d="M857.099 258.088C861.247 256.014 863.946 253.154 861.537 248.587C859.128 244.027 855.148 244.813 851.167 246.887L857.099 258.088Z" fill="#010101"/>
<path d="M881.669 365.212C881.296 373.051 873.373 369.361 869.927 366.952C866.481 364.543 865.779 366.578 865.283 361.973C864.98 358.971 864.851 355.95 864.909 352.929C870.139 352.394 875.382 353.734 879.717 356.704C881.875 358.282 885.901 363.261 881.708 365" fill="#F6D2A2"/>
<path d="M881.669 365.96H880.883C879.724 365.592 878.706 364.865 877.978 363.886C877.727 363.551 877.791 363.08 878.126 362.829C878.461 362.578 878.931 362.642 879.183 362.977C879.795 363.641 880.587 364.105 881.463 364.304H881.959C882.416 364.382 882.725 364.82 882.642 365.277C882.558 365.734 882.126 366.043 881.669 365.96Z" fill="#010101"/>
<path d="M693.43 366.204C693.803 374.043 701.726 370.352 705.172 367.943C708.618 365.534 709.32 367.569 709.816 362.964C710.119 359.962 710.248 356.941 710.19 353.92C704.959 353.386 699.716 354.725 695.381 357.695C693.223 359.273 689.198 364.252 693.391 365.991" fill="#F6D2A2"/>
<path d="M694.356 366.848C693.957 366.977 693.525 366.751 693.403 366.352C693.281 365.952 693.5 365.521 693.899 365.398H694.395C695.271 365.192 696.07 364.735 696.675 364.072C696.926 363.737 697.403 363.672 697.732 363.923C698.06 364.175 698.131 364.651 697.88 364.98C697.094 365.882 696.05 366.519 694.891 366.803H694.35V366.841L694.356 366.848Z" fill="#010101"/>
<path d="M851.544 458.932C857.56 462.668 868.594 473.947 859.551 479.428C850.881 487.396 845.985 470.674 838.353 468.394C841.316 463.608 846.063 460.207 851.544 458.939V458.932Z" fill="#F6D2A2"/>
<path d="M859.55 480.214C859.266 480.214 859.009 480.053 858.886 479.801C858.448 478.88 858.062 477.94 857.727 476.98C857.225 475.099 856.284 473.367 854.989 471.917C854.693 471.634 854.68 471.157 854.97 470.861C855.253 470.565 855.73 470.552 856.026 470.842C857.456 472.407 858.513 474.281 859.099 476.317C859.421 477.218 859.801 478.107 860.22 478.97C860.4 479.338 860.252 479.782 859.885 479.969L859.55 480.22V480.214Z" fill="#010101"/>
<path d="M730.203 463.627C723.111 464.703 719.124 471.092 713.237 474.332C711.15 476.258 707.897 476.129 705.965 474.042C705.52 473.559 705.172 472.999 704.934 472.381C704.097 472.4 703.304 472.033 702.776 471.382C697.63 463.086 708.129 457.321 713.643 453.257C721.398 451.762 726.171 458.358 730.197 463.627H730.203Z" fill="#F6D2A2"/>
<path d="M704.695 472.522C704.283 472.484 703.986 472.117 704.025 471.704C704.031 471.608 704.064 471.511 704.109 471.421C704.714 469.501 705.822 467.775 707.316 466.416C708.038 465.695 708.688 464.909 709.274 464.078C709.5 463.73 709.97 463.633 710.318 463.859C710.666 464.084 710.762 464.555 710.537 464.902C709.906 465.817 709.197 466.68 708.418 467.472C707.117 468.696 706.17 470.242 705.667 471.956C705.59 472.361 705.197 472.625 704.791 472.542C704.759 472.542 704.727 472.529 704.701 472.516L704.695 472.522Z" fill="#010101"/>
<path d="M783.806 223.292C813.842 223.292 841.887 227.441 856.65 256.478C869.803 288.793 864.946 323.679 867.143 357.824C868.882 387.151 872.701 421.044 859.098 448.259C844.869 476.8 808.946 483.891 779.491 482.938C756.341 482.107 728.379 474.642 715.317 453.399C699.967 428.51 707.226 391.672 708.347 364.085C709.674 331.396 699.471 298.584 710.215 266.558C721.371 233.373 751.407 225.863 783.768 223.292" fill="#74CDDD"/>
<path d="M795.491 310.436C795.89 314.758 795.89 319.1 795.491 323.422C794.273 324.961 792.56 326.017 790.634 326.41C788.238 326.043 786.19 324.478 785.198 322.262C784.934 317.367 785.056 312.452 785.571 307.576L795.484 310.436H795.491Z" fill="white"/>
<path d="M773.932 309.709C770.698 317.509 775.716 333.103 784.47 321.612C784.205 316.717 784.328 311.802 784.843 306.926L773.932 309.709Z" fill="white"/>
<path d="M774.885 294.687C769.661 295.183 765.828 299.821 766.324 305.045C766.421 306.05 766.679 307.035 767.085 307.963C771.233 315.428 780.444 307.299 786.17 307.963C792.766 307.963 798.202 314.932 803.51 309.206C809.403 302.816 800.978 296.762 794.382 293.818L774.885 294.687Z" fill="#F6D2A2"/>
<path d="M773.932 294.398C773.474 284.027 793.307 282.7 795.626 291.409C797.951 300.117 774.885 302.114 773.932 294.398Z" fill="#010101"/>
<path d="M790.583 274.88C795.974 306.198 847.169 297.946 839.826 266.333C833.23 237.998 788.798 245.837 790.583 274.88Z" fill="white"/>
<path d="M729.399 279.982C736.368 307.235 780.007 300.227 778.391 272.89C776.439 240.117 722.719 246.301 729.399 279.982Z" fill="white"/>
<path d="M755.646 283.286C761.398 283.286 766.061 278.739 766.061 273.129C766.061 267.519 761.398 262.971 755.646 262.971C749.894 262.971 745.23 267.519 745.23 273.129C745.23 278.739 749.894 283.286 755.646 283.286Z" fill="#010101"/>
<path d="M760.386 278.017C761.741 278.017 762.84 276.864 762.84 275.441C762.84 274.018 761.741 272.864 760.386 272.864C759.03 272.864 757.932 274.018 757.932 275.441C757.932 276.864 759.03 278.017 760.386 278.017Z" fill="white"/>
<path d="M812.742 282.784C818.494 282.784 823.157 278.236 823.157 272.626C823.157 267.016 818.494 262.468 812.742 262.468C806.989 262.468 802.326 267.016 802.326 272.626C802.326 278.236 806.989 282.784 812.742 282.784Z" fill="#010101"/>
<path d="M808.001 277.514C809.356 277.514 810.455 276.361 810.455 274.938C810.455 273.515 809.356 272.361 808.001 272.361C806.646 272.361 805.547 273.515 805.547 274.938C805.547 276.361 806.646 277.514 808.001 277.514Z" fill="white"/>
<path d="M796.572 124.639C793.712 124.639 791.638 127.055 791.638 130.391C791.638 133.728 793.712 136.105 796.572 136.105C799.432 136.105 801.467 133.753 801.467 130.391C801.467 127.029 799.361 124.639 796.572 124.639Z" fill="#74CDDD"/>
<path d="M741.237 131.164L737.926 132.021C735.015 132.813 734.506 133.47 734.506 134.559C734.506 136.298 736.374 136.485 737.172 136.485C739.839 136.485 741.772 134.784 741.772 132.44V131.808C741.772 131.506 741.707 131.274 741.598 131.19C741.507 131.119 741.353 131.138 741.237 131.171V131.164Z" fill="#74CDDD"/>
<path d="M682.82 124.639C679.831 124.639 677.667 127.055 677.667 130.391C677.667 133.728 679.838 136.105 682.82 136.105C685.802 136.105 687.979 133.702 687.979 130.391C687.979 127.08 685.809 124.639 682.82 124.639Z" fill="#74CDDD"/>
<path d="M659.194 124.639C656.205 124.639 654.041 127.055 654.041 130.391C654.041 133.728 656.212 136.105 659.194 136.105C662.176 136.105 664.353 133.702 664.353 130.391C664.353 127.08 662.183 124.639 659.194 124.639Z" fill="#74CDDD"/>
<path d="M831.573 129.347H835.586L836.681 124.124H832.668L831.573 129.347Z" fill="#74CDDD"/>
<path d="M870.06 93.5791H620.411C607.748 93.5791 597.48 103.846 597.48 116.51V166.101H892.991V116.51C892.991 103.846 882.724 93.5791 870.06 93.5791ZM636.276 140.465H624.418V113.482H636.16C641.152 113.482 644.373 116.297 644.373 120.658C644.373 123.08 643.426 124.929 641.487 126.275C644.315 127.511 645.745 129.695 645.745 132.768C645.745 137.586 642.202 140.465 636.269 140.465H636.276ZM659.2 140.838C653.062 140.838 648.604 136.445 648.604 130.397C648.604 124.349 653.062 119.917 659.2 119.917C665.339 119.917 669.796 124.323 669.796 130.397C669.796 136.471 665.339 140.838 659.2 140.838ZM682.827 140.838C676.688 140.838 672.237 136.445 672.237 130.397C672.237 124.349 676.695 119.917 682.827 119.917C688.959 119.917 693.423 124.323 693.423 130.397C693.423 136.471 688.965 140.838 682.827 140.838ZM707.464 124.832H702.299V134.036C702.299 135.544 702.917 136.181 704.373 136.181C705.081 136.181 705.79 136.014 706.749 135.621L707.426 135.344V139.911L707.149 140.046C706.015 140.594 704.791 140.838 703.181 140.838C699.245 140.838 696.901 138.474 696.901 134.52V125.566C696.901 124.941 696.675 124.832 696.237 124.832H693.745V120.284H696.901V115.196H702.299V120.284H707.464V124.832ZM727.78 137.36C725.912 139.569 722.956 140.838 719.677 140.838C713.667 140.838 709.307 136.445 709.307 130.397C709.307 124.349 713.667 119.917 719.677 119.917C722.956 119.917 725.906 121.186 727.78 123.396L728.051 123.718L724.785 127.447L724.418 126.99C723.2 125.463 721.641 124.684 719.786 124.684C716.765 124.684 714.743 126.977 714.743 130.397C714.743 133.817 716.772 136.11 719.786 136.11C721.616 136.11 723.175 135.331 724.424 133.805L724.791 133.36L728.057 137.044L727.786 137.367L727.78 137.36ZM747.065 140.471H741.738V138.809C740.431 140.117 738.492 140.845 736.212 140.845C731.941 140.845 729.075 138.333 729.075 134.597C729.075 131.241 730.988 129.592 736.392 128.291L741.699 127.009V126.951C741.699 126.384 741.699 124.658 738.292 124.658C736.199 124.658 734.414 125.251 732.514 126.577L732.089 126.874L729.571 122.771L729.951 122.507C732.347 120.845 735.284 119.93 738.215 119.93C743.838 119.93 747.059 122.584 747.059 127.215V140.484L747.065 140.471ZM781.538 140.471H776.141V128.916C776.141 126.288 774.956 124.838 772.804 124.838C770.653 124.838 769.358 126.391 769.358 128.993V140.478H763.96V128.883C763.96 126.313 762.743 124.838 760.624 124.838C758.505 124.838 757.178 126.468 757.178 128.993V140.478H751.741V120.297H757.1V122.024C758.447 120.6 760.102 119.924 762.221 119.924C764.592 119.924 766.543 121.057 767.799 123.138C769.326 121.032 771.477 119.924 774.073 119.924C778.614 119.924 781.545 123.035 781.545 127.84V140.478L781.538 140.471ZM797.397 140.845C795.052 140.845 793.094 140.053 791.645 138.532V146.494H786.208V120.297H791.574V122.307C793.075 120.742 795.078 119.93 797.435 119.93C802.84 119.93 806.91 124.439 806.91 130.41C806.91 136.381 802.82 140.851 797.397 140.851V140.845ZM847.232 124.13H841.146L840.051 129.354H846.15L845.268 133.418H839.175L837.654 140.478H833.197L834.717 133.418H830.704L829.184 140.478H824.695L826.215 133.418H820.096L820.926 129.354H827.097L828.192 124.13H822.067L822.898 120.065H829.068L830.479 113.489H834.975L833.564 120.065H837.577L838.988 113.489H843.445L842.034 120.065H848.128L847.245 124.13H847.232ZM870.324 140.471H850.55V136.175L850.736 136.027C855.091 132.626 858.215 130.133 860.327 128.214C863.155 125.56 864.07 124.014 864.07 121.85C864.07 119.305 861.996 118.139 860.063 118.139C857.828 118.139 856.179 119.209 854.376 121.83L854.086 122.249L850.092 119.222L850.324 118.842C852.701 114.983 855.993 113.109 860.398 113.109C866.041 113.109 869.693 116.478 869.693 121.695C869.693 125.405 868.096 128.123 863.799 131.73C862.84 132.555 861.616 133.566 860.154 134.745C859.683 135.099 859.632 135.344 859.645 135.383C859.651 135.402 859.793 135.511 860.179 135.511H870.324V140.465V140.471Z" fill="#74CDDD"/>
<path d="M635.98 129.212H631.452C630.415 129.212 629.938 129.695 629.938 130.726V135.512H636.244C638.705 135.512 640.174 134.307 640.174 132.284C640.174 129.605 637.546 129.206 635.98 129.206V129.212Z" fill="#74CDDD"/>
<path d="M638.795 121.406C638.795 119.525 637.455 118.443 635.123 118.443H629.932V124.523H635.052C637.397 124.523 638.795 123.358 638.795 121.412V121.406Z" fill="#74CDDD"/>
<path d="M147.214 246.681L140.869 245.76L139.626 242.765L143.458 237.631C143.987 236.923 143.916 235.931 143.291 235.3L134.834 226.836C134.202 226.205 133.21 226.134 132.502 226.669L127.368 230.501L124.373 229.258L123.452 222.92C123.323 222.037 122.57 221.387 121.681 221.387H109.713C108.824 221.387 108.07 222.037 107.942 222.913L107.02 229.258L104.025 230.501L98.8916 226.669C98.1767 226.134 97.1847 226.205 96.5599 226.836L88.1026 235.3C87.4714 235.931 87.4005 236.923 87.9351 237.631L91.7677 242.765L90.5245 245.76L84.1799 246.681C83.3039 246.81 82.6533 247.564 82.6533 248.453V260.421C82.6533 261.309 83.3103 262.063 84.1863 262.192L90.5245 263.107L91.7677 266.108L87.9351 271.242C87.4005 271.957 87.4714 272.949 88.1026 273.574L96.5664 282.031C97.1718 282.636 98.2218 282.714 98.9045 282.198L104.032 278.372L107.027 279.615L107.948 285.954C108.077 286.83 108.83 287.48 109.719 287.48H121.687C122.576 287.48 123.33 286.83 123.458 285.954L124.38 279.615L127.375 278.372L132.508 282.198C133.223 282.733 134.209 282.662 134.84 282.031L143.304 273.567C143.935 272.936 144.006 271.944 143.471 271.235L139.632 266.089L140.863 263.107L147.22 262.185C148.103 262.057 148.753 261.303 148.753 260.414V248.453C148.753 247.564 148.103 246.81 147.227 246.681H147.214ZM115.697 272.53C105.7 272.53 97.597 264.427 97.597 254.43C97.597 244.433 105.7 236.33 115.697 236.33C125.694 236.33 133.797 244.433 133.797 254.43C133.797 264.427 125.694 272.53 115.697 272.53Z" fill="#74CDDD"/>
<path d="M184.927 265.302L181.752 267.673L179.897 266.906L179.33 262.983C179.253 262.442 178.782 262.037 178.235 262.037H170.834C170.286 262.037 169.816 262.436 169.739 262.983L169.172 266.906L167.317 267.673L164.141 265.302C163.703 264.974 163.085 265.019 162.699 265.405L157.468 270.636C157.082 271.022 157.037 271.64 157.365 272.078L159.736 275.254L158.969 277.109L155.046 277.676C154.499 277.753 154.1 278.217 154.1 278.771V286.172C154.1 286.719 154.505 287.19 155.046 287.267L158.969 287.84L159.736 289.695L157.365 292.871C157.037 293.309 157.082 293.927 157.468 294.314L162.699 299.544C163.085 299.93 163.703 299.975 164.141 299.647L167.311 297.277L169.166 298.043L169.732 301.959C169.81 302.507 170.28 302.906 170.827 302.906H178.222C178.75 302.906 179.24 302.475 179.317 301.953L179.884 298.037L181.739 297.27L184.914 299.64C185.352 299.969 185.971 299.924 186.357 299.537L191.588 294.307C191.974 293.921 192.019 293.302 191.691 292.864L189.32 289.689L190.087 287.834L194.003 287.26C194.55 287.183 194.95 286.719 194.95 286.165V278.764C194.95 278.217 194.544 277.747 194.003 277.669L190.074 277.103L189.307 275.26L191.684 272.078C192.013 271.64 191.968 271.022 191.581 270.636L186.351 265.405C185.964 265.019 185.346 264.974 184.908 265.302H184.927ZM182.447 290.384C178.074 294.758 170.988 294.758 166.621 290.384C162.248 286.011 162.248 278.926 166.621 274.558C170.995 270.185 178.08 270.185 182.447 274.558C186.821 278.932 186.821 286.017 182.447 290.384Z" fill="#74CDDD"/>
<path d="M97.72 339.544C95.3496 337.174 91.5107 337.174 89.1467 339.544L72.8762 355.815C70.6025 358.089 70.6025 361.773 72.8762 364.04L89.1467 380.304C91.5171 382.668 95.3561 382.668 97.72 380.304C100.09 377.934 100.09 374.095 97.72 371.725L85.9133 359.918L97.72 348.111C100.09 345.747 100.09 341.902 97.72 339.538V339.544Z" fill="#74CDDD"/>
<path d="M142.758 380.311C145.129 382.675 148.968 382.675 151.338 380.311L167.602 364.047C169.876 361.773 169.876 358.089 167.602 355.821L151.338 339.551C148.968 337.18 145.129 337.18 142.758 339.551C140.388 341.915 140.388 345.76 142.758 348.124L154.565 359.931L142.758 371.738C140.388 374.108 140.388 377.947 142.758 380.317V380.311Z" fill="#74CDDD"/>
<path d="M120.625 379.383L131.421 344.002C132.393 340.807 130.596 337.425 127.401 336.453C124.206 335.48 120.825 337.277 119.846 340.472L109.05 375.854C108.078 379.048 109.875 382.43 113.07 383.409C116.264 384.382 119.646 382.585 120.619 379.383H120.625Z" fill="#74CDDD"/>
<path d="M578.453 205.812H503.065C494.705 205.812 487.909 212.607 487.909 220.968V291.918C487.909 300.369 494.743 307.164 503.156 307.164H578.37C586.821 307.164 593.616 300.369 593.616 291.918V220.968C593.616 212.607 586.821 205.812 578.46 205.812H578.453ZM527.8 295.267H508.244C506.067 295.267 504.328 293.483 504.328 291.306C504.328 289.129 506.067 287.345 508.244 287.345H527.8C529.977 287.345 531.716 289.129 531.716 291.306C531.716 293.483 529.977 295.267 527.8 295.267ZM508.244 278.584C506.067 278.584 504.328 276.8 504.328 274.623C504.328 272.446 506.067 270.7 508.244 270.7H538.254C540.431 270.7 542.215 272.446 542.215 274.623C542.215 276.8 540.431 278.584 538.254 278.584H508.244ZM573.268 295.267H543.387C541.21 295.267 539.426 293.483 539.426 291.306C539.426 289.129 541.21 287.345 543.387 287.345H573.268C575.445 287.345 577.23 289.129 577.23 291.306C577.23 293.483 575.445 295.267 573.268 295.267ZM573.268 278.584H553.842C551.664 278.584 549.919 276.8 549.919 274.623C549.919 272.446 551.664 270.7 553.842 270.7H573.268C575.445 270.7 577.23 272.446 577.23 274.623C577.23 276.8 575.445 278.584 573.268 278.584ZM586.157 258.771H495.394V220.968C495.394 216.742 498.834 213.303 503.059 213.303H578.447C582.718 213.303 586.157 216.742 586.157 220.968V258.771Z" fill="#74CDDD"/>
<path d="M248.927 228.22C249.913 225.245 250.209 221.947 249.61 218.526C248.347 211.312 242.827 205.238 235.781 203.235C231.993 202.159 228.36 202.262 225.075 203.19C223.813 203.544 223.388 205.135 224.315 206.063L231.877 213.618C234.634 216.375 234.634 220.839 231.877 223.589C229.12 226.34 224.657 226.34 221.906 223.589L214.351 216.034C213.423 215.106 211.839 215.531 211.484 216.794C210.55 220.085 210.447 223.718 211.517 227.512C213.507 234.565 219.581 240.079 226.802 241.328C230.228 241.921 233.52 241.625 236.502 240.639L263.858 267.995C265.172 269.309 267.304 269.309 268.618 267.995L276.283 260.33C277.597 259.016 277.597 256.884 276.283 255.57L248.927 228.214V228.22Z" fill="#74CDDD"/>
<path d="M257.797 333.322H273.359C275.858 333.322 277.887 335.351 277.887 337.85V366.72C277.887 369.219 275.858 371.248 273.359 371.248H257.797C255.298 371.248 253.269 369.219 253.269 366.72V337.85C253.269 335.351 255.298 333.322 257.797 333.322Z" fill="#74CDDD"/>
<path d="M289.739 340.729H331.665C333.713 340.729 335.368 339.074 335.368 337.025C335.368 334.977 333.713 333.322 331.665 333.322H289.739C287.691 333.322 286.035 334.977 286.035 337.025C286.035 339.074 287.691 340.729 289.739 340.729Z" fill="#74CDDD"/>
<path d="M331.665 348.575H289.739C287.691 348.575 286.035 350.23 286.035 352.278C286.035 354.327 287.691 355.982 289.739 355.982H331.665C333.713 355.982 335.368 354.327 335.368 352.278C335.368 350.23 333.713 348.575 331.665 348.575Z" fill="#74CDDD"/>
<path d="M320.392 363.854H289.726C287.684 363.854 286.048 365.49 286.048 367.531C286.048 369.573 287.684 371.248 289.726 371.248H320.888L320.315 366.269C320.231 365.451 320.231 364.678 320.399 363.86L320.392 363.854Z" fill="#74CDDD"/>
<path d="M358.054 382.681L353.307 379.39V306.063C353.307 299.486 347.954 294.14 341.384 294.14H247.246C240.669 294.14 235.323 299.493 235.323 306.063V378.185C235.323 384.762 240.676 390.108 247.246 390.108H330.093L331.117 398.849C331.317 400.536 333.365 401.271 334.589 400.079L341.552 393.303L347.381 403.01C347.967 403.982 349.223 404.298 350.196 403.712L353.384 401.799C354.357 401.213 354.673 399.957 354.087 398.984L348.257 389.277L357.513 386.314C359.136 385.792 359.459 383.641 358.054 382.675V382.681ZM314.26 304.594H334.801C336.682 304.594 338.228 306.147 338.228 308.021C338.228 309.895 336.676 311.454 334.801 311.454H314.26C312.38 311.454 310.834 309.902 310.834 308.021C310.834 306.14 312.386 304.594 314.26 304.594ZM277.913 303.821C280.238 303.821 282.119 305.702 282.119 308.027C282.119 310.353 280.238 312.272 277.913 312.272C275.587 312.272 273.668 310.353 273.668 308.027C273.668 305.702 275.587 303.821 277.913 303.821ZM265.417 303.821C267.742 303.821 269.661 305.702 269.661 308.027C269.661 310.353 267.742 312.272 265.417 312.272C263.091 312.272 261.211 310.353 261.211 308.027C261.211 305.702 263.091 303.821 265.417 303.821ZM252.959 303.821C255.285 303.821 257.165 305.702 257.165 308.027C257.165 310.353 255.285 312.272 252.959 312.272C250.634 312.272 248.715 310.353 248.715 308.027C248.715 305.702 250.634 303.821 252.959 303.821ZM330.402 363.519C328.946 362.514 326.988 363.686 327.194 365.444L329.223 382.72H247.246C244.753 382.72 242.711 380.678 242.711 378.185V321.947H345.913V374.263L330.409 363.512L330.402 363.519Z" fill="#74CDDD"/>
<path d="M586.622 354.05L566.957 334.385C566.429 333.857 565.669 333.547 564.87 333.547H519.93C518.339 333.547 517.012 334.874 517.012 336.504V417.064C517.012 418.694 518.339 420.021 519.93 420.021H584.535C586.165 420.021 587.492 418.694 587.492 417.064V356.13C587.492 355.332 587.189 354.617 586.622 354.05ZM581.585 414.114H522.886V339.428H560.058V357.998C560.058 359.628 561.385 360.955 563.015 360.955H581.585V414.121V414.114Z" fill="#74CDDD"/>
<path d="M115.396 466.23C110.404 470.198 104.072 472.562 97.1995 472.562C90.3267 472.562 84.0015 470.198 79.0031 466.23C69.9918 469.483 63.5312 478.05 63.5312 488.169V499.763C63.5312 502.127 65.4056 504.001 67.7696 504.001H126.636C128.955 504.001 130.874 502.127 130.874 499.763V488.169C130.874 478.043 124.362 469.483 115.396 466.23Z" fill="#74CDDD"/>
<path d="M97.1863 464.323C108.909 464.323 118.417 454.816 118.417 443.093C118.417 431.37 108.909 421.863 97.1863 421.863C85.4633 421.863 75.9561 431.37 75.9561 443.093C75.9561 454.816 85.4633 464.323 97.1863 464.323Z" fill="#74CDDD"/>
<path d="M316.09 436.479C312.412 430.321 303.491 430.321 299.819 436.479L267.491 490.637C263.716 496.955 268.27 504.968 275.626 504.968H340.289C347.645 504.968 352.199 496.949 348.425 490.637L316.09 436.479ZM307.491 448.788C310.421 448.53 313.011 450.701 313.262 453.632C313.288 453.934 313.288 454.263 313.262 454.559L311.491 474.843C311.317 476.801 309.597 478.244 307.645 478.076C305.9 477.922 304.56 476.53 304.412 474.843L302.64 454.559C302.383 451.628 304.553 449.039 307.484 448.788H307.491ZM307.954 493.96C304.818 493.96 302.273 491.416 302.273 488.279C302.273 485.142 304.818 482.598 307.954 482.598C311.091 482.598 313.636 485.142 313.636 488.279C313.636 491.416 311.091 493.96 307.954 493.96Z" fill="#74CDDD"/>
<path d="M215.903 452.89C215.285 452.401 214.512 452.124 213.706 452.104L204.309 451.879V450.397L214.396 448.265C215.8 447.969 216.869 446.906 217.107 445.579L218.847 435.905C219.169 434.095 217.874 432.381 215.942 432.078C214.016 431.802 212.186 432.993 211.864 434.803L210.524 442.275L204.309 443.589V442.165C204.309 441.006 203.987 439.898 203.394 438.932L195.871 441.45C195.136 441.702 194.37 441.811 193.597 441.811C192.824 441.811 192.064 441.702 191.355 441.45L183.832 438.932C183.239 439.898 182.917 441.006 182.917 442.165V443.595L176.682 442.281L175.343 434.81C175.02 433 173.191 431.801 171.265 432.085C169.339 432.388 168.038 434.107 168.36 435.911L170.099 445.586C170.338 446.919 171.413 447.975 172.811 448.272L182.924 450.404V451.879L173.5 452.104C172.695 452.124 171.922 452.401 171.304 452.89L166.782 456.478C165.288 457.663 165.107 459.756 166.37 461.161C167.072 461.934 168.07 462.333 169.075 462.333C169.887 462.333 170.698 462.075 171.362 461.547L174.93 458.713L182.924 458.52V460.124L174.628 464.523C173.7 465.012 173.056 465.876 172.876 466.861L171.136 476.536C170.814 478.346 172.109 480.059 174.041 480.362C174.241 480.394 174.441 480.407 174.634 480.407C176.328 480.407 177.829 479.26 178.119 477.637L179.574 469.528L183.594 467.396C185.088 471.241 188.979 473.998 193.591 473.998C198.202 473.998 202.112 471.248 203.613 467.402L207.619 469.528L209.075 477.637C209.365 479.26 210.866 480.407 212.56 480.407C212.753 480.407 212.953 480.394 213.153 480.362C215.078 480.059 216.38 478.346 216.058 476.536L214.318 466.861C214.144 465.869 213.5 465.012 212.566 464.523L204.296 460.136V458.526L212.27 458.719L215.838 461.554C216.502 462.082 217.314 462.339 218.125 462.339C219.13 462.339 220.128 461.94 220.83 461.167C222.093 459.769 221.906 457.669 220.418 456.484L215.896 452.896L215.903 452.89Z" fill="#74CDDD"/>
<path d="M203.414 416.162C202.293 415.711 200.992 416.201 200.509 417.251L196.837 425.276C195.813 424.967 194.731 424.787 193.598 424.787C192.464 424.787 191.382 424.974 190.358 425.276L186.686 417.251C186.203 416.194 184.895 415.705 183.781 416.162C182.66 416.619 182.139 417.837 182.622 418.887L186.493 427.357C184.908 428.69 183.723 430.436 183.201 432.439C182.86 433.753 183.723 435.093 185.082 435.55L192.625 438.062C193.25 438.275 193.939 438.275 194.564 438.062L202.106 435.55C203.465 435.099 204.335 433.76 203.987 432.439C203.465 430.436 202.287 428.69 200.696 427.357L204.567 418.887C205.05 417.83 204.528 416.613 203.408 416.162H203.414Z" fill="#74CDDD"/>
<path d="M403.386 273.361C399.193 273.361 395.792 276.762 395.792 280.955C395.792 285.148 399.193 288.549 403.386 288.549C407.579 288.549 410.98 285.148 410.98 280.955C410.98 276.762 407.579 273.361 403.386 273.361Z" fill="#74CDDD"/>
<path d="M405.789 254.469H400.983V279.815H405.789V254.469Z" fill="#74CDDD"/>
<path d="M380.271 273.361C376.078 273.361 372.677 276.762 372.677 280.955C372.677 285.148 376.078 288.549 380.271 288.549C384.464 288.549 387.865 285.148 387.865 280.955C387.865 276.762 384.464 273.361 380.271 273.361Z" fill="#74CDDD"/>
<path d="M382.673 279.821H377.868V267.358C377.868 266.346 378.506 265.438 379.459 265.097L385.462 262.945V254.469H390.268V264.639C390.268 265.651 389.63 266.559 388.677 266.9L382.673 269.052V279.821Z" fill="#74CDDD"/>
<path d="M426.506 273.361C430.7 273.361 434.101 276.762 434.101 280.955C434.101 285.148 430.7 288.549 426.506 288.549C422.313 288.549 418.912 285.148 418.912 280.955C418.912 276.762 422.313 273.361 426.506 273.361Z" fill="#74CDDD"/>
<path d="M424.103 279.821H428.908V267.358C428.908 266.346 428.27 265.438 427.317 265.097L421.314 262.945V254.469H416.509V264.639C416.509 265.651 417.146 266.559 418.1 266.9L424.103 269.052V279.821Z" fill="#74CDDD"/>
<path d="M431.408 221.728C430.351 221.728 429.321 221.838 428.322 222.024C427.498 208.955 416.67 198.604 403.395 198.604C391.581 198.604 381.707 206.804 379.086 217.812C378.519 217.76 377.952 217.722 377.379 217.722C366.886 217.722 358.377 226.23 358.377 236.723C358.377 247.216 366.886 255.725 377.379 255.725H431.408C440.799 255.725 448.406 248.111 448.406 238.726C448.406 229.342 440.792 221.728 431.408 221.728Z" fill="#74CDDD"/>
<path d="M478.705 360.529L441.468 323.292C439.89 321.708 437.81 320.909 435.729 320.909C433.649 320.909 431.568 321.701 429.99 323.292L422.628 330.655L431.742 339.769C434.77 337.991 438.712 338.378 441.307 340.974C443.903 343.569 444.283 347.511 442.499 350.532L451.459 359.492C454.486 357.714 458.428 358.101 461.024 360.697C464.103 363.776 464.103 368.767 461.024 371.853C457.945 374.932 452.953 374.932 449.868 371.853C447.272 369.257 446.886 365.315 448.663 362.288L439.704 353.328C439.066 353.708 438.396 353.985 437.694 354.159V378.384C441.088 379.26 443.607 382.32 443.607 385.998C443.607 390.358 440.077 393.888 435.716 393.888C431.356 393.888 427.826 390.358 427.826 385.998C427.826 382.326 430.344 379.267 433.739 378.384V354.159C432.419 353.817 431.169 353.167 430.132 352.13C427.536 349.534 427.156 345.592 428.94 342.571L419.82 333.45L392.734 360.536C389.559 363.705 389.559 368.845 392.734 372.014L429.971 409.251C431.549 410.835 433.629 411.634 435.71 411.634C437.791 411.634 439.871 410.842 441.449 409.251L478.686 372.014C481.861 368.845 481.861 363.705 478.686 360.536L478.705 360.529Z" fill="#74CDDD"/>
<path d="M451.774 485.741L459.22 493.154C471.452 505.341 491.336 505.322 503.549 493.116C509.475 487.19 512.74 479.312 512.74 470.932C512.74 462.552 509.475 454.675 503.549 448.749C491.336 436.536 471.452 436.523 459.22 448.71L426.37 481.444C420.586 487.209 411.182 487.203 405.404 481.425C399.62 475.641 399.62 466.23 405.404 460.446C408.296 457.554 412.096 456.111 415.897 456.111C419.697 456.111 423.478 457.547 426.37 460.427L433.777 467.776L445.507 456.117L438.041 448.71C425.81 436.523 405.926 436.543 393.713 448.749C381.481 460.981 381.481 480.884 393.713 493.116C399.826 499.229 407.858 502.282 415.897 502.282C423.935 502.282 431.929 499.241 438.041 493.154L470.892 460.42C476.676 454.655 486.08 454.662 491.858 460.44C494.66 463.241 496.206 466.971 496.206 470.932C496.206 474.894 494.66 478.623 491.858 481.425C486.087 487.196 476.682 487.209 470.892 481.444L463.491 474.082L451.781 485.747L451.774 485.741Z" fill="#74CDDD"/>
<path d="M581.418 508.414C579.788 507.976 578.996 506.823 578.7 505.245C578.519 504.304 578.249 503.615 577.134 503.235C575.634 502.732 574.796 501.444 574.674 499.821C574.597 498.739 574.59 497.637 574.642 496.555C574.713 495.061 575.737 494.05 577.212 494.043C582.545 494.017 587.878 494.017 593.212 494.043C594.725 494.05 595.762 495.1 595.82 496.626C595.859 497.657 595.859 498.687 595.801 499.718C595.704 501.476 594.558 502.977 592.864 503.473C592.297 503.641 592.078 503.931 591.975 504.446C591.911 504.774 591.801 505.09 591.73 505.412C591.408 506.926 590.59 507.988 589.057 508.414H581.418Z" fill="#74CDDD"/>
<path d="M585.238 490.559C583.028 490.559 580.813 490.565 578.603 490.559C576.11 490.546 574.771 489.444 574.32 487.016C573.547 482.9 571.827 479.248 568.948 476.188C565.895 472.942 563.814 469.193 562.816 464.826C560.362 454.069 566.565 442.494 576.883 438.649C587.067 434.849 597.811 438.089 604.085 446.984C607.55 451.899 608.761 457.432 607.898 463.383C607.228 468.008 605.309 472.066 602.114 475.48C598.945 478.868 596.864 482.758 596.085 487.357C595.737 489.419 594.236 490.533 592.059 490.559C589.785 490.585 587.511 490.559 585.238 490.559ZM568.69 459.409C568.69 459.589 568.69 459.77 568.69 459.957C568.703 461.438 569.708 462.552 571.106 462.63C572.555 462.707 573.637 461.779 573.824 460.285C573.862 459.957 573.888 459.622 573.914 459.287C574.223 455.383 576.085 452.427 579.37 450.346C581.212 449.18 583.267 448.794 585.418 448.652C586.983 448.549 587.898 447.37 587.795 445.889C587.705 444.517 586.552 443.512 585.07 443.512C576.394 443.512 569.012 450.681 568.69 459.403V459.409Z" fill="#74CDDD"/>
<path d="M299.736 78.8833H298.42L302.494 69.0833H303.782L307.87 78.8833H306.498L305.49 76.3353H301.304C300.926 76.3353 300.688 76.4893 300.548 76.8673L299.736 78.8833ZM303.124 70.4413L301.178 75.2433H304.538C304.846 75.2433 304.986 75.0473 304.874 74.7533L303.124 70.4413ZM310.871 78.8833H309.625V69.0833H313.503C315.603 69.0833 316.891 70.2733 316.891 72.2473C316.891 74.2073 315.575 75.4113 313.419 75.4113H311.529C311.109 75.4113 310.871 75.6493 310.871 76.0693V78.8833ZM310.871 70.2173V74.2773H313.405C314.805 74.2773 315.645 73.5073 315.645 72.2333C315.645 70.9873 314.805 70.2173 313.405 70.2173H310.871ZM320.142 78.8833H318.896V69.0833H320.142V78.8833ZM303.418 99.0233C300.744 99.0233 298.812 96.8953 298.812 93.9693C298.812 91.0293 300.898 88.9433 303.866 88.9433C305.224 88.9433 306.344 89.4193 307.296 90.3153L306.498 91.2113C305.868 90.5813 305 90.0773 303.824 90.0773C301.612 90.0773 300.086 91.7013 300.086 94.0113C300.086 96.2793 301.556 97.9033 303.628 97.9033C305.308 97.9033 306.456 96.7833 306.456 95.3273C306.456 94.8653 306.288 94.6693 305.812 94.6693H303.53V93.6193H307.66V98.8833H306.442V97.3153C305.924 98.4493 304.804 99.0233 303.418 99.0233ZM310.512 90.4413C310.036 90.4413 309.7 90.1053 309.7 89.6433C309.7 89.1813 310.036 88.8453 310.512 88.8453C311.002 88.8453 311.338 89.1813 311.338 89.6433C311.338 90.1053 311.002 90.4413 310.512 90.4413ZM311.128 98.8833H309.91V91.6873H311.128V98.8833ZM315.995 99.0233C314.665 99.0233 313.895 98.2533 313.895 96.9373V93.1993C313.895 92.8633 313.741 92.7093 313.419 92.7093H312.635V91.6873H313.895V89.7273H315.099V91.6873H317.311V92.7093H315.099V96.8113C315.099 97.5813 315.505 97.9733 316.275 97.9733C316.611 97.9733 316.905 97.9033 317.297 97.7493V98.7573C316.891 98.9533 316.499 99.0233 315.995 99.0233ZM302.606 118.883H299.344V109.083H302.606C305.672 109.083 307.786 111.197 307.786 113.955C307.786 116.769 305.63 118.883 302.606 118.883ZM301.248 117.749H302.606C304.902 117.749 306.498 116.209 306.498 113.983C306.498 111.869 304.972 110.217 302.606 110.217H300.59V117.091C300.59 117.511 300.828 117.749 301.248 117.749ZM313.034 119.023C310.78 119.023 309.268 117.525 309.268 115.243C309.268 113.045 310.724 111.547 312.88 111.547C314.756 111.547 316.142 112.835 316.184 114.585C316.184 114.711 316.17 114.781 316.156 114.893L310.962 115.971C310.668 116.027 310.556 116.223 310.682 116.489C311.032 117.469 311.858 118.001 313.02 118.001C313.944 118.001 314.644 117.679 315.316 116.923L316.086 117.665C315.344 118.561 314.308 119.023 313.034 119.023ZM310.486 115.131L314.98 114.207C314.84 113.241 313.972 112.555 312.88 112.555C311.396 112.555 310.43 113.591 310.486 115.131ZM321.116 118.883H319.772L317.028 111.687H318.358L320.29 117.105C320.374 117.343 320.542 117.343 320.626 117.105L322.586 111.687H323.874L321.116 118.883ZM330.016 119.023C327.202 119.023 325.144 116.867 325.144 113.997C325.144 111.127 327.202 108.957 330.016 108.957C332.83 108.957 334.888 111.127 334.888 113.997C334.888 116.867 332.816 119.023 330.016 119.023ZM330.016 117.889C332.074 117.889 333.6 116.181 333.6 113.997C333.6 111.785 332.074 110.091 330.016 110.091C327.944 110.091 326.418 111.785 326.418 113.997C326.418 116.181 327.944 117.889 330.016 117.889ZM340.622 111.547C342.54 111.547 344.024 113.171 344.024 115.285C344.024 117.385 342.54 119.023 340.608 119.023C339.516 119.023 338.676 118.561 338.018 117.595V121.151H336.814V111.687H338.004V113.003C338.578 112.065 339.502 111.547 340.622 111.547ZM340.412 117.973C341.812 117.973 342.792 116.853 342.792 115.285C342.792 113.773 341.77 112.597 340.412 112.597C339.026 112.597 338.004 113.759 338.004 115.285C338.004 116.825 339.026 117.973 340.412 117.973ZM348.259 119.023C347.139 119.023 346.005 118.603 345.207 117.903L345.823 117.049C346.579 117.693 347.405 118.043 348.259 118.043C349.099 118.043 349.673 117.595 349.673 116.993C349.673 116.391 349.225 116.083 348.035 115.747C346.187 115.229 345.557 114.613 345.557 113.563C345.557 112.359 346.551 111.561 348.049 111.561C349.001 111.561 349.981 111.883 350.681 112.443L350.135 113.297C349.491 112.821 348.735 112.541 348.035 112.541C347.251 112.541 346.747 112.919 346.747 113.493C346.747 114.109 347.307 114.417 348.525 114.767C350.303 115.257 350.849 115.845 350.849 116.881C350.849 118.169 349.799 119.023 348.259 119.023ZM300.548 138.883H299.344V129.083H300.632L303.95 136.895C304.076 137.217 304.37 137.217 304.51 136.895L307.814 129.083H309.116V138.883H307.884V131.617L304.804 138.883H303.628L300.548 131.617V138.883ZM312.289 130.441C311.813 130.441 311.477 130.105 311.477 129.643C311.477 129.181 311.813 128.845 312.289 128.845C312.779 128.845 313.115 129.181 313.115 129.643C313.115 130.105 312.779 130.441 312.289 130.441ZM312.905 138.883H311.687V131.687H312.905V138.883ZM318.458 139.023C316.274 139.023 314.832 137.399 314.832 135.285C314.832 133.171 316.274 131.547 318.458 131.547C319.578 131.547 320.628 131.967 321.342 132.821L320.586 133.633C320.04 132.947 319.312 132.611 318.486 132.611C316.988 132.611 316.064 133.731 316.064 135.285C316.064 136.853 316.988 137.959 318.486 137.959C319.312 137.959 320.04 137.623 320.586 136.937L321.342 137.749C320.628 138.603 319.578 139.023 318.458 139.023ZM324.196 131.687V133.507C324.728 132.289 325.764 131.505 327.108 131.575V132.849H327.01C325.414 132.849 324.224 133.955 324.224 136.041V138.883H323.006V131.687H324.196ZM331.585 139.023C329.457 139.023 327.889 137.427 327.889 135.285C327.889 133.143 329.457 131.547 331.585 131.547C333.713 131.547 335.281 133.143 335.281 135.285C335.281 137.427 333.713 139.023 331.585 139.023ZM331.585 137.973C333.013 137.973 334.049 136.811 334.049 135.285C334.049 133.759 333.013 132.597 331.585 132.597C330.157 132.597 329.121 133.759 329.121 135.285C329.121 136.811 330.157 137.973 331.585 137.973ZM339.523 139.023C338.403 139.023 337.269 138.603 336.471 137.903L337.087 137.049C337.843 137.693 338.669 138.043 339.523 138.043C340.363 138.043 340.937 137.595 340.937 136.993C340.937 136.391 340.489 136.083 339.299 135.747C337.451 135.229 336.821 134.613 336.821 133.563C336.821 132.359 337.815 131.561 339.313 131.561C340.265 131.561 341.245 131.883 341.945 132.443L341.399 133.297C340.755 132.821 339.999 132.541 339.299 132.541C338.515 132.541 338.011 132.919 338.011 133.493C338.011 134.109 338.571 134.417 339.789 134.767C341.567 135.257 342.113 135.845 342.113 136.881C342.113 138.169 341.063 139.023 339.523 139.023ZM347.282 139.023C345.028 139.023 343.516 137.525 343.516 135.243C343.516 133.045 344.972 131.547 347.128 131.547C349.004 131.547 350.39 132.835 350.432 134.585C350.432 134.711 350.418 134.781 350.404 134.893L345.21 135.971C344.916 136.027 344.804 136.223 344.93 136.489C345.28 137.469 346.106 138.001 347.268 138.001C348.192 138.001 348.892 137.679 349.564 136.923L350.334 137.665C349.592 138.561 348.556 139.023 347.282 139.023ZM344.734 135.131L349.228 134.207C349.088 133.241 348.22 132.555 347.128 132.555C345.644 132.555 344.678 133.591 344.734 135.131ZM353.358 131.687V133.507C353.89 132.289 354.926 131.505 356.27 131.575V132.849H356.172C354.576 132.849 353.386 133.955 353.386 136.041V138.883H352.168V131.687H353.358ZM361.189 138.883H359.845L357.101 131.687H358.431L360.363 137.105C360.447 137.343 360.615 137.343 360.699 137.105L362.659 131.687H363.947L361.189 138.883ZM366.252 130.441C365.776 130.441 365.44 130.105 365.44 129.643C365.44 129.181 365.776 128.845 366.252 128.845C366.742 128.845 367.078 129.181 367.078 129.643C367.078 130.105 366.742 130.441 366.252 130.441ZM366.868 138.883H365.65V131.687H366.868V138.883ZM372.421 139.023C370.237 139.023 368.795 137.399 368.795 135.285C368.795 133.171 370.237 131.547 372.421 131.547C373.541 131.547 374.591 131.967 375.305 132.821L374.549 133.633C374.003 132.947 373.275 132.611 372.449 132.611C370.951 132.611 370.027 133.731 370.027 135.285C370.027 136.853 370.951 137.959 372.449 137.959C373.275 137.959 374.003 137.623 374.549 136.937L375.305 137.749C374.591 138.603 373.541 139.023 372.421 139.023ZM380.259 139.023C378.005 139.023 376.493 137.525 376.493 135.243C376.493 133.045 377.949 131.547 380.105 131.547C381.981 131.547 383.367 132.835 383.409 134.585C383.409 134.711 383.395 134.781 383.381 134.893L378.187 135.971C377.893 136.027 377.781 136.223 377.907 136.489C378.257 137.469 379.083 138.001 380.245 138.001C381.169 138.001 381.869 137.679 382.541 136.923L383.311 137.665C382.569 138.561 381.533 139.023 380.259 139.023ZM377.711 135.131L382.205 134.207C382.065 133.241 381.197 132.555 380.105 132.555C378.621 132.555 377.655 133.591 377.711 135.131Z" fill="#BABABA"/>
<path d="M410.494 78.9561H409.248V69.1561H413.126C415.226 69.1561 416.514 70.3461 416.514 72.3201C416.514 74.2801 415.198 75.4841 413.042 75.4841H411.152C410.732 75.4841 410.494 75.7221 410.494 76.1421V78.9561ZM410.494 70.2901V74.3501H413.028C414.428 74.3501 415.268 73.5801 415.268 72.3061C415.268 71.0601 414.428 70.2901 413.028 70.2901H410.494ZM421.557 79.0961C419.303 79.0961 417.791 77.5981 417.791 75.3161C417.791 73.1181 419.247 71.6201 421.403 71.6201C423.279 71.6201 424.665 72.9081 424.707 74.6581C424.707 74.7841 424.693 74.8541 424.679 74.9661L419.485 76.0441C419.191 76.1001 419.079 76.2961 419.205 76.5621C419.555 77.5421 420.381 78.0741 421.543 78.0741C422.467 78.0741 423.167 77.7521 423.839 76.9961L424.609 77.7381C423.867 78.6341 422.831 79.0961 421.557 79.0961ZM419.009 75.2041L423.503 74.2801C423.363 73.3141 422.495 72.6281 421.403 72.6281C419.919 72.6281 418.953 73.6641 419.009 75.2041ZM427.633 71.7601V73.5801C428.165 72.3621 429.201 71.5781 430.545 71.6481V72.9221H430.447C428.851 72.9221 427.661 74.0281 427.661 76.1141V78.9561H426.443V71.7601H427.633ZM434.152 78.9561H432.948V73.3281C432.948 72.9641 432.752 72.7821 432.402 72.7821H431.702V71.7601H432.948V71.3961C432.948 69.8281 433.732 68.9601 435.118 68.9601C435.58 68.9601 435.958 69.0301 436.336 69.1561V70.1781C435.944 70.0521 435.65 69.9961 435.328 69.9961C434.53 69.9961 434.152 70.4861 434.152 71.3961V71.7601H436.322V72.7821H434.152V78.9561ZM440.464 79.0961C438.336 79.0961 436.768 77.5001 436.768 75.3581C436.768 73.2161 438.336 71.6201 440.464 71.6201C442.592 71.6201 444.16 73.2161 444.16 75.3581C444.16 77.5001 442.592 79.0961 440.464 79.0961ZM440.464 78.0461C441.892 78.0461 442.928 76.8841 442.928 75.3581C442.928 73.8321 441.892 72.6701 440.464 72.6701C439.036 72.6701 438 73.8321 438 75.3581C438 76.8841 439.036 78.0461 440.464 78.0461ZM447.198 71.7601V73.5801C447.73 72.3621 448.766 71.5781 450.11 71.6481V72.9221H450.012C448.416 72.9221 447.226 74.0281 447.226 76.1141V78.9561H446.008V71.7601H447.198ZM459.761 71.6201C461.385 71.6201 462.435 72.7541 462.435 74.5041V78.9561H461.231V74.7561C461.231 73.4681 460.573 72.7121 459.467 72.7121C458.375 72.7121 457.633 73.5661 457.633 74.8121V78.9561H456.415V74.7421C456.415 73.4821 455.757 72.7121 454.679 72.7121C453.601 72.7121 452.817 73.5941 452.817 74.8261V78.9561H451.613V71.7601H452.803V72.9081C453.391 72.0261 454.077 71.6201 455.043 71.6201C456.065 71.6201 456.849 72.1661 457.269 73.1601C457.787 72.1521 458.655 71.6201 459.761 71.6201ZM466.574 79.0961C465.062 79.0961 464.082 78.2561 464.082 76.9541C464.082 75.8341 464.726 75.2461 466.518 74.8121L468.982 74.2381V74.0561C468.982 73.1041 468.422 72.6701 467.26 72.6701C466.434 72.6701 465.636 72.9361 464.908 73.4401L464.348 72.5161C465.188 71.9421 466.21 71.6201 467.26 71.6201C469.15 71.6201 470.186 72.5021 470.186 74.0981V78.9561H468.996V77.8221C468.562 78.6201 467.68 79.0961 466.574 79.0961ZM466.784 78.1161C468.1 78.1161 469.01 77.2621 469.01 76.0021V75.7081C469.01 75.3441 468.842 75.1621 468.548 75.2321L466.91 75.6381C465.706 75.9461 465.3 76.2681 465.3 76.9541C465.3 77.6821 465.846 78.1161 466.784 78.1161ZM475.852 71.6201C477.476 71.6201 478.498 72.7121 478.498 74.4621V78.9561H477.28V74.7421C477.28 73.4681 476.608 72.7121 475.488 72.7121C474.368 72.7121 473.57 73.5661 473.57 74.8121V78.9561H472.366V71.7601H473.556V72.9501C474.06 72.0681 474.83 71.6201 475.852 71.6201ZM483.857 79.0961C481.673 79.0961 480.231 77.4721 480.231 75.3581C480.231 73.2441 481.673 71.6201 483.857 71.6201C484.977 71.6201 486.027 72.0401 486.741 72.8941L485.985 73.7061C485.439 73.0201 484.711 72.6841 483.885 72.6841C482.387 72.6841 481.463 73.8041 481.463 75.3581C481.463 76.9261 482.387 78.0321 483.885 78.0321C484.711 78.0321 485.439 77.6961 485.985 77.0101L486.741 77.8221C486.027 78.6761 484.977 79.0961 483.857 79.0961ZM491.694 79.0961C489.44 79.0961 487.928 77.5981 487.928 75.3161C487.928 73.1181 489.384 71.6201 491.54 71.6201C493.416 71.6201 494.802 72.9081 494.844 74.6581C494.844 74.7841 494.83 74.8541 494.816 74.9661L489.622 76.0441C489.328 76.1001 489.216 76.2961 489.342 76.5621C489.692 77.5421 490.518 78.0741 491.68 78.0741C492.604 78.0741 493.304 77.7521 493.976 76.9961L494.746 77.7381C494.004 78.6341 492.968 79.0961 491.694 79.0961ZM489.146 75.2041L493.64 74.2801C493.5 73.3141 492.632 72.6281 491.54 72.6281C490.056 72.6281 489.09 73.6641 489.146 75.2041ZM412.664 98.9561H411.418V90.2901H408.184V89.1561H415.898V90.2901H413.322C412.902 90.2901 412.664 90.5281 412.664 90.9481V98.9561ZM419.643 99.0961C417.389 99.0961 415.877 97.5981 415.877 95.3161C415.877 93.1181 417.333 91.6201 419.489 91.6201C421.365 91.6201 422.751 92.9081 422.793 94.6581C422.793 94.7841 422.779 94.8541 422.765 94.9661L417.571 96.0441C417.277 96.1001 417.165 96.2961 417.291 96.5621C417.641 97.5421 418.467 98.0741 419.629 98.0741C420.553 98.0741 421.253 97.7521 421.925 96.9961L422.695 97.7381C421.953 98.6341 420.917 99.0961 419.643 99.0961ZM417.095 95.2041L421.589 94.2801C421.449 93.3141 420.581 92.6281 419.489 92.6281C418.005 92.6281 417.039 93.6641 417.095 95.2041ZM426.923 99.0961C425.803 99.0961 424.669 98.6761 423.871 97.9761L424.487 97.1221C425.243 97.7661 426.069 98.1161 426.923 98.1161C427.763 98.1161 428.337 97.6681 428.337 97.0661C428.337 96.4641 427.889 96.1561 426.699 95.8201C424.851 95.3021 424.221 94.6861 424.221 93.6361C424.221 92.4321 425.215 91.6341 426.713 91.6341C427.665 91.6341 428.645 91.9561 429.345 92.5161L428.799 93.3701C428.155 92.8941 427.399 92.6141 426.699 92.6141C425.915 92.6141 425.411 92.9921 425.411 93.5661C425.411 94.1821 425.971 94.4901 427.189 94.8401C428.967 95.3301 429.513 95.9181 429.513 96.9541C429.513 98.2421 428.463 99.0961 426.923 99.0961ZM433.583 99.0961C432.253 99.0961 431.483 98.3261 431.483 97.0101V93.2721C431.483 92.9361 431.329 92.7821 431.007 92.7821H430.223V91.7601H431.483V89.8001H432.687V91.7601H434.899V92.7821H432.687V96.8841C432.687 97.6541 433.093 98.0461 433.863 98.0461C434.199 98.0461 434.493 97.9761 434.885 97.8221V98.8301C434.479 99.0261 434.087 99.0961 433.583 99.0961ZM441.441 98.9561H440.125L444.199 89.1561H445.487L449.575 98.9561H448.203L447.195 96.4081H443.009C442.631 96.4081 442.393 96.5621 442.253 96.9401L441.441 98.9561ZM444.829 90.5141L442.883 95.3161H446.243C446.551 95.3161 446.691 95.1201 446.579 94.8261L444.829 90.5141ZM455.922 95.9041V91.7601H457.14V98.9561H455.936V97.7661C455.432 98.6481 454.662 99.0961 453.682 99.0961C452.058 99.0961 451.036 97.9761 451.036 96.2121V91.7601H452.254V96.0021C452.254 97.2341 452.926 98.0041 454.018 98.0041C455.138 98.0041 455.922 97.1501 455.922 95.9041ZM461.884 99.0961C460.554 99.0961 459.784 98.3261 459.784 97.0101V93.2721C459.784 92.9361 459.63 92.7821 459.308 92.7821H458.524V91.7601H459.784V89.8001H460.988V91.7601H463.2V92.7821H460.988V96.8841C460.988 97.6541 461.394 98.0461 462.164 98.0461C462.5 98.0461 462.794 97.9761 463.186 97.8221V98.8301C462.78 99.0261 462.388 99.0961 461.884 99.0961ZM467.986 99.0961C465.858 99.0961 464.29 97.5001 464.29 95.3581C464.29 93.2161 465.858 91.6201 467.986 91.6201C470.114 91.6201 471.682 93.2161 471.682 95.3581C471.682 97.5001 470.114 99.0961 467.986 99.0961ZM467.986 98.0461C469.414 98.0461 470.45 96.8841 470.45 95.3581C470.45 93.8321 469.414 92.6701 467.986 92.6701C466.558 92.6701 465.522 93.8321 465.522 95.3581C465.522 96.8841 466.558 98.0461 467.986 98.0461ZM481.649 91.6201C483.273 91.6201 484.323 92.7541 484.323 94.5041V98.9561H483.119V94.7561C483.119 93.4681 482.461 92.7121 481.355 92.7121C480.263 92.7121 479.521 93.5661 479.521 94.8121V98.9561H478.303V94.7421C478.303 93.4821 477.645 92.7121 476.567 92.7121C475.489 92.7121 474.705 93.5941 474.705 94.8261V98.9561H473.501V91.7601H474.691V92.9081C475.279 92.0261 475.965 91.6201 476.931 91.6201C477.953 91.6201 478.737 92.1661 479.157 93.1601C479.675 92.1521 480.543 91.6201 481.649 91.6201ZM488.463 99.0961C486.951 99.0961 485.971 98.2561 485.971 96.9541C485.971 95.8341 486.615 95.2461 488.407 94.8121L490.871 94.2381V94.0561C490.871 93.1041 490.311 92.6701 489.149 92.6701C488.323 92.6701 487.525 92.9361 486.797 93.4401L486.237 92.5161C487.077 91.9421 488.099 91.6201 489.149 91.6201C491.039 91.6201 492.075 92.5021 492.075 94.0981V98.9561H490.885V97.8221C490.451 98.6201 489.569 99.0961 488.463 99.0961ZM488.673 98.1161C489.989 98.1161 490.899 97.2621 490.899 96.0021V95.7081C490.899 95.3441 490.731 95.1621 490.437 95.2321L488.799 95.6381C487.595 95.9461 487.189 96.2681 487.189 96.9541C487.189 97.6821 487.735 98.1161 488.673 98.1161ZM496.474 99.0961C495.144 99.0961 494.374 98.3261 494.374 97.0101V93.2721C494.374 92.9361 494.22 92.7821 493.898 92.7821H493.114V91.7601H494.374V89.8001H495.578V91.7601H497.79V92.7821H495.578V96.8841C495.578 97.6541 495.984 98.0461 496.754 98.0461C497.09 98.0461 497.384 97.9761 497.776 97.8221V98.8301C497.37 99.0261 496.978 99.0961 496.474 99.0961ZM500.315 90.5141C499.839 90.5141 499.503 90.1781 499.503 89.7161C499.503 89.2541 499.839 88.9181 500.315 88.9181C500.805 88.9181 501.141 89.2541 501.141 89.7161C501.141 90.1781 500.805 90.5141 500.315 90.5141ZM500.931 98.9561H499.713V91.7601H500.931V98.9561ZM506.554 99.0961C504.426 99.0961 502.858 97.5001 502.858 95.3581C502.858 93.2161 504.426 91.6201 506.554 91.6201C508.682 91.6201 510.25 93.2161 510.25 95.3581C510.25 97.5001 508.682 99.0961 506.554 99.0961ZM506.554 98.0461C507.982 98.0461 509.018 96.8841 509.018 95.3581C509.018 93.8321 507.982 92.6701 506.554 92.6701C505.126 92.6701 504.09 93.8321 504.09 95.3581C504.09 96.8841 505.126 98.0461 506.554 98.0461ZM515.556 91.6201C517.18 91.6201 518.202 92.7121 518.202 94.4621V98.9561H516.984V94.7421C516.984 93.4681 516.312 92.7121 515.192 92.7121C514.072 92.7121 513.274 93.5661 513.274 94.8121V98.9561H512.07V91.7601H513.26V92.9501C513.764 92.0681 514.534 91.6201 515.556 91.6201ZM412.594 119.096C411.04 119.096 409.682 118.564 408.59 117.528L409.36 116.618C410.284 117.542 411.334 117.976 412.622 117.976C413.882 117.976 414.694 117.346 414.694 116.38C414.694 115.47 414.12 115.008 412.244 114.616C409.92 114.112 408.968 113.272 408.968 111.774C408.968 110.15 410.312 109.016 412.244 109.016C413.588 109.016 414.694 109.408 415.66 110.22L414.96 111.186C414.176 110.486 413.238 110.136 412.202 110.136C411.054 110.136 410.228 110.78 410.228 111.704C410.228 112.642 410.914 113.048 412.79 113.468C415.072 113.972 415.968 114.784 415.968 116.282C415.968 117.948 414.596 119.096 412.594 119.096ZM421.159 119.096C419.031 119.096 417.463 117.5 417.463 115.358C417.463 113.216 419.031 111.62 421.159 111.62C423.287 111.62 424.855 113.216 424.855 115.358C424.855 117.5 423.287 119.096 421.159 119.096ZM421.159 118.046C422.587 118.046 423.623 116.884 423.623 115.358C423.623 113.832 422.587 112.67 421.159 112.67C419.731 112.67 418.695 113.832 418.695 115.358C418.695 116.884 419.731 118.046 421.159 118.046ZM427.849 118.956H426.645V113.328C426.645 112.964 426.449 112.782 426.099 112.782H425.399V111.76H426.645V111.396C426.645 109.828 427.429 108.96 428.815 108.96C429.277 108.96 429.655 109.03 430.033 109.156V110.178C429.641 110.052 429.347 109.996 429.025 109.996C428.227 109.996 427.849 110.486 427.849 111.396V111.76H430.019V112.782H427.849V118.956ZM434.171 119.096C432.841 119.096 432.071 118.326 432.071 117.01V113.272C432.071 112.936 431.917 112.782 431.595 112.782H430.811V111.76H432.071V109.8H433.275V111.76H435.487V112.782H433.275V116.884C433.275 117.654 433.681 118.046 434.451 118.046C434.787 118.046 435.081 117.976 435.473 117.822V118.83C435.067 119.026 434.675 119.096 434.171 119.096ZM440.014 118.956H438.908L436.654 111.76H437.914L439.538 117.416L441.302 111.76H442.45L444.228 117.43L445.838 111.76H447.07L444.802 118.956H443.696L442.044 113.804C441.974 113.566 441.778 113.566 441.694 113.804L440.014 118.956ZM450.401 119.096C448.889 119.096 447.909 118.256 447.909 116.954C447.909 115.834 448.553 115.246 450.345 114.812L452.809 114.238V114.056C452.809 113.104 452.249 112.67 451.087 112.67C450.261 112.67 449.463 112.936 448.735 113.44L448.175 112.516C449.015 111.942 450.037 111.62 451.087 111.62C452.977 111.62 454.013 112.502 454.013 114.098V118.956H452.823V117.822C452.389 118.62 451.507 119.096 450.401 119.096ZM450.611 118.116C451.927 118.116 452.837 117.262 452.837 116.002V115.708C452.837 115.344 452.669 115.162 452.375 115.232L450.737 115.638C449.533 115.946 449.127 116.268 449.127 116.954C449.127 117.682 449.673 118.116 450.611 118.116ZM457.411 111.76V113.58C457.943 112.362 458.979 111.578 460.323 111.648V112.922H460.225C458.629 112.922 457.439 114.028 457.439 116.114V118.956H456.221V111.76H457.411ZM464.87 119.096C462.616 119.096 461.104 117.598 461.104 115.316C461.104 113.118 462.56 111.62 464.716 111.62C466.592 111.62 467.978 112.908 468.02 114.658C468.02 114.784 468.006 114.854 467.992 114.966L462.798 116.044C462.504 116.1 462.392 116.296 462.518 116.562C462.868 117.542 463.694 118.074 464.856 118.074C465.78 118.074 466.48 117.752 467.152 116.996L467.922 117.738C467.18 118.634 466.144 119.096 464.87 119.096ZM462.322 115.204L466.816 114.28C466.676 113.314 465.808 112.628 464.716 112.628C463.232 112.628 462.266 113.664 462.322 115.204ZM474.459 118.956H473.143L477.217 109.156H478.505L482.593 118.956H481.221L480.213 116.408H476.027C475.649 116.408 475.411 116.562 475.271 116.94L474.459 118.956ZM477.847 110.514L475.901 115.316H479.261C479.569 115.316 479.709 115.12 479.597 114.826L477.847 110.514ZM485.356 111.76V113.58C485.888 112.362 486.924 111.578 488.268 111.648V112.922H488.17C486.574 112.922 485.384 114.028 485.384 116.114V118.956H484.166V111.76H485.356ZM492.675 119.096C490.491 119.096 489.049 117.472 489.049 115.358C489.049 113.244 490.491 111.62 492.675 111.62C493.795 111.62 494.845 112.04 495.559 112.894L494.803 113.706C494.257 113.02 493.529 112.684 492.703 112.684C491.205 112.684 490.281 113.804 490.281 115.358C490.281 116.926 491.205 118.032 492.703 118.032C493.529 118.032 494.257 117.696 494.803 117.01L495.559 117.822C494.845 118.676 493.795 119.096 492.675 119.096ZM500.681 111.62C502.305 111.62 503.327 112.712 503.327 114.462V118.956H502.109V114.742C502.109 113.468 501.437 112.712 500.317 112.712C499.197 112.712 498.399 113.566 498.399 114.812V118.956H497.195V109.156H498.399V112.936C498.889 112.068 499.673 111.62 500.681 111.62ZM506.221 110.514C505.745 110.514 505.409 110.178 505.409 109.716C505.409 109.254 505.745 108.918 506.221 108.918C506.711 108.918 507.047 109.254 507.047 109.716C507.047 110.178 506.711 110.514 506.221 110.514ZM506.837 118.956H505.619V111.76H506.837V118.956ZM511.704 119.096C510.374 119.096 509.604 118.326 509.604 117.01V113.272C509.604 112.936 509.45 112.782 509.128 112.782H508.344V111.76H509.604V109.8H510.808V111.76H513.02V112.782H510.808V116.884C510.808 117.654 511.214 118.046 511.984 118.046C512.32 118.046 512.614 117.976 513.006 117.822V118.83C512.6 119.026 512.208 119.096 511.704 119.096ZM517.876 119.096C515.622 119.096 514.11 117.598 514.11 115.316C514.11 113.118 515.566 111.62 517.722 111.62C519.598 111.62 520.984 112.908 521.026 114.658C521.026 114.784 521.012 114.854 520.998 114.966L515.804 116.044C515.51 116.1 515.398 116.296 515.524 116.562C515.874 117.542 516.7 118.074 517.862 118.074C518.786 118.074 519.486 117.752 520.158 116.996L520.928 117.738C520.186 118.634 519.15 119.096 517.876 119.096ZM515.328 115.204L519.822 114.28C519.682 113.314 518.814 112.628 517.722 112.628C516.238 112.628 515.272 113.664 515.328 115.204ZM525.912 119.096C523.728 119.096 522.286 117.472 522.286 115.358C522.286 113.244 523.728 111.62 525.912 111.62C527.032 111.62 528.082 112.04 528.796 112.894L528.04 113.706C527.494 113.02 526.766 112.684 525.94 112.684C524.442 112.684 523.518 113.804 523.518 115.358C523.518 116.926 524.442 118.032 525.94 118.032C526.766 118.032 527.494 117.696 528.04 117.01L528.796 117.822C528.082 118.676 527.032 119.096 525.912 119.096ZM532.923 119.096C531.593 119.096 530.823 118.326 530.823 117.01V113.272C530.823 112.936 530.669 112.782 530.347 112.782H529.563V111.76H530.823V109.8H532.027V111.76H534.239V112.782H532.027V116.884C532.027 117.654 532.433 118.046 533.203 118.046C533.539 118.046 533.833 117.976 534.225 117.822V118.83C533.819 119.026 533.427 119.096 532.923 119.096ZM540.852 115.904V111.76H542.07V118.956H540.866V117.766C540.362 118.648 539.592 119.096 538.612 119.096C536.988 119.096 535.966 117.976 535.966 116.212V111.76H537.184V116.002C537.184 117.234 537.856 118.004 538.948 118.004C540.068 118.004 540.852 117.15 540.852 115.904ZM545.54 111.76V113.58C546.072 112.362 547.108 111.578 548.452 111.648V112.922H548.354C546.758 112.922 545.568 114.028 545.568 116.114V118.956H544.35V111.76H545.54ZM552.999 119.096C550.745 119.096 549.233 117.598 549.233 115.316C549.233 113.118 550.689 111.62 552.845 111.62C554.721 111.62 556.107 112.908 556.149 114.658C556.149 114.784 556.135 114.854 556.121 114.966L550.927 116.044C550.633 116.1 550.521 116.296 550.647 116.562C550.997 117.542 551.823 118.074 552.985 118.074C553.909 118.074 554.609 117.752 555.281 116.996L556.051 117.738C555.309 118.634 554.273 119.096 552.999 119.096ZM550.451 115.204L554.945 114.28C554.805 113.314 553.937 112.628 552.845 112.628C551.361 112.628 550.395 113.664 550.451 115.204Z" fill="#BABABA"/>
</svg>
